<svg width="132" height="131" viewBox="0 0 132 131" fill="none" xmlns="http://www.w3.org/2000/svg">
<rect width="132" height="131" fill="white"/>
<rect x="12.6561" y="32.723" width="14.5195" height="82.277" fill="#030919"/>
<circle cx="19.9159" cy="18.2035" r="8.46969" fill="#030919"/>
<rect x="48.9548" y="46.0325" width="13.3095" height="68.9675" fill="#030919"/>
<rect x="34.4354" y="32.723" width="39.9285" height="13.3095" fill="#030919"/>
<rect x="34.4354" y="14.5736" width="39.9285" height="6.04978" fill="#030919"/>
<path d="M73.7589 14.5736V115H91.9083C91.4243 101.449 93.7232 98.0606 94.9331 98.0606C99.9746 98.4639 110.663 98.9076 113.082 97.4556C115.502 96.0037 114.292 88.9859 114.897 86.566C115.502 84.1461 117.171 84.4418 117.317 82.9361C117.44 81.6698 114.897 80.5162 115.502 79.9112C116.107 79.3063 118.527 77.9686 118.527 76.8864C118.527 75.6764 116.107 70.8366 117.922 70.8366C119.737 70.8366 123.367 69.6266 123.972 67.2067C124.456 65.2708 118.527 55.9138 115.502 51.4773C117.922 34.5379 111.268 26.6732 108.243 23.6483C101.502 16.9072 83.6402 13.9686 73.7589 14.5736Z" fill="#030919"/>
</svg>
