<svg width="83" height="69" viewBox="0 0 83 69" fill="none" xmlns="http://www.w3.org/2000/svg">
<g clip-path="url(#clip0_25_69)">
<path d="M37.5609 52.8154C37.5609 48.5254 36.4397 44.9227 34.1972 42.0075C32.6079 39.999 30.4516 38.6795 27.7281 38.049C25.0468 37.425 22.5118 37.3811 20.2206 37.9125C19.4406 33.2812 20.7081 28.377 23.9256 23.1803C27.1496 17.9868 31.3063 14.0819 36.3958 11.4656L28.6884 0.375C24.7884 2.3055 21.0834 4.75275 17.6709 7.71188C14.2097 10.671 11.1384 14.0737 8.40844 17.9201C5.67844 21.7665 3.63094 26.1101 2.31469 31.0339C0.99844 35.9576 0.632816 40.9789 1.26169 46.1464C2.08069 52.9714 4.28419 58.4314 7.87219 62.4776C11.4569 66.5759 15.9224 68.625 21.2687 68.625C25.9731 68.625 29.8779 67.2113 32.9687 64.3447C36.0269 61.5367 37.5544 57.6887 37.5512 52.8007L37.5609 52.8154ZM82.0404 52.8154C82.0404 48.5254 80.9192 44.9227 78.6767 42.0075C77.0842 39.96 74.9278 38.6324 72.2076 38.0246C69.4776 37.4234 66.9751 37.3876 64.7001 37.9174C63.9201 33.3349 65.1388 28.4111 68.3661 23.1949C71.5836 18.0274 75.7371 14.1274 80.8266 11.4949L73.1387 0.375C69.2354 2.3055 65.5629 4.75113 62.1212 7.71188C58.6288 10.7152 55.5268 14.1447 52.8879 17.9201C50.1774 21.7714 48.1592 26.1101 46.8429 31.0339C45.5059 35.9538 45.1465 41.0882 45.7851 46.1464C46.5943 52.9714 48.7881 58.4314 52.3663 62.4776C55.9413 66.5466 60.3987 68.5811 65.7384 68.5811C70.4509 68.5876 74.3542 67.1625 77.4482 64.3058C80.5064 61.4978 82.0372 57.6497 82.0404 52.7618V52.8154Z" fill="#030919"/>
</g>
<defs>
<clipPath id="clip0_25_69">
<rect width="83" height="69" fill="white"/>
</clipPath>
</defs>
</svg>
