<svg width="81" height="81" viewBox="0 0 81 81" fill="none" xmlns="http://www.w3.org/2000/svg">
<path d="M67.5 57.375C69.2902 57.375 71.0071 56.6638 72.273 55.398C73.5388 54.1321 74.25 52.4152 74.25 50.625V13.5C74.25 11.7098 73.5388 9.9929 72.273 8.72703C71.0071 7.46116 69.2902 6.75 67.5 6.75H31.9275C33.1087 8.80875 33.75 11.1375 33.75 13.5H67.5V50.625H37.125V57.375M50.625 23.625V30.375H30.375V74.25H23.625V54H16.875V74.25H10.125V47.25H5.0625V30.375C5.0625 28.5848 5.77366 26.8679 7.03953 25.602C8.3054 24.3362 10.0223 23.625 11.8125 23.625H50.625ZM27 13.5C27 15.2902 26.2888 17.0071 25.023 18.273C23.7571 19.5388 22.0402 20.25 20.25 20.25C18.4598 20.25 16.7429 19.5388 15.477 18.273C14.2112 17.0071 13.5 15.2902 13.5 13.5C13.5 11.7098 14.2112 9.9929 15.477 8.72703C16.7429 7.46116 18.4598 6.75 20.25 6.75C22.0402 6.75 23.7571 7.46116 25.023 8.72703C26.2888 9.9929 27 11.7098 27 13.5Z" fill="#3E87F0"/>
</svg>
