<svg width="81" height="82" viewBox="0 0 81 82" fill="none" xmlns="http://www.w3.org/2000/svg">
<path d="M17.9021 15.8874V45.5392H35.2634C36.452 45.5392 37.0502 45.5392 37.5296 45.8357C38.0051 46.1283 38.2745 46.662 38.8054 47.7255L40.5803 51.26C41.1112 52.3275 41.3767 52.8573 41.8561 53.1498C42.3355 53.4464 42.9298 53.4464 44.1223 53.4464H63.4646C64.3996 53.4464 64.8671 53.4464 65.1564 53.1577C65.4456 52.8691 65.4456 52.4026 65.4456 51.4696V23.7946C65.4456 22.8615 65.4456 22.395 65.1564 22.1064C64.8671 21.8178 64.3996 21.8178 63.4646 21.8178H44.1223C42.9337 21.8178 42.3355 21.8178 41.8561 21.5213C41.3807 21.2287 41.1112 20.695 40.5803 19.6315L38.8054 16.097C38.2745 15.0295 38.009 14.4997 37.5296 14.2072C37.0502 13.9106 36.4559 13.9106 35.2634 13.9106H19.8831C18.9481 13.9106 18.4805 13.9106 18.1913 14.1993C17.9021 14.4879 17.9021 14.9544 17.9021 15.8874Z" fill="#3E87F0"/>
<path d="M17.9021 45.5392V15.8874C17.9021 14.9544 17.9021 14.4879 18.1913 14.1993C18.4805 13.9106 18.9481 13.9106 19.8831 13.9106H35.2634C36.452 13.9106 37.0502 13.9106 37.5296 14.2072C38.0051 14.4997 38.2745 15.0335 38.8054 16.097L40.5803 19.6315C41.1112 20.6989 41.3767 21.2287 41.8561 21.5213C42.3355 21.8178 42.9298 21.8178 44.1223 21.8178H63.4646C64.3996 21.8178 64.8671 21.8178 65.1564 22.1064C65.4456 22.395 65.4456 22.8615 65.4456 23.7946V51.4696C65.4456 52.4026 65.4456 52.8691 65.1564 53.1577C64.8671 53.4464 64.3996 53.4464 63.4646 53.4464H44.1223C42.9337 53.4464 42.3355 53.4464 41.8561 53.1498C41.3807 52.8573 41.1112 52.3235 40.5803 51.26L38.8054 47.7255C38.2745 46.6581 38.009 46.1283 37.5296 45.8357C37.0502 45.5392 36.4559 45.5392 35.2634 45.5392H17.9021ZM17.9021 45.5392V69.2606" stroke="#3E87F0" stroke-width="2" stroke-linecap="round"/>
</svg>
