<svg width="84" height="84" viewBox="0 0 84 84" fill="none" xmlns="http://www.w3.org/2000/svg">
<path d="M71.75 42C70.2917 42 69.0527 41.4902 68.033 40.4705C67.0133 39.4508 66.5023 38.2107 66.5 36.75V15.75C66.5 14.2917 67.011 13.0527 68.033 12.033C69.055 11.0133 70.294 10.5023 71.75 10.5C73.206 10.4977 74.4462 11.0087 75.4705 12.033C76.4948 13.0573 77.0047 14.2963 77 15.75V36.75C77 38.2083 76.4902 39.4485 75.4705 40.4705C74.4508 41.4925 73.2107 42.0023 71.75 42ZM35 42C31.15 42 27.8542 40.6292 25.1125 37.8875C22.3708 35.1458 21 31.85 21 28C21 24.15 22.3708 20.8542 25.1125 18.1125C27.8542 15.3708 31.15 14 35 14C38.85 14 42.1458 15.3708 44.8875 18.1125C47.6292 20.8542 49 24.15 49 28C49 31.85 47.6292 35.1458 44.8875 37.8875C42.1458 40.6292 38.85 42 35 42ZM7 70V60.2C7 58.2167 7.49583 56.3943 8.4875 54.733C9.47917 53.0717 10.85 51.8023 12.6 50.925C16.1 49.175 19.7318 47.8333 23.4955 46.9C27.2592 45.9667 31.094 45.5 35 45.5C38.906 45.5 42.742 45.9667 46.508 46.9C50.274 47.8333 53.9047 49.175 57.4 50.925C59.15 51.8 60.5208 53.0693 61.5125 54.733C62.5042 56.3967 63 58.219 63 60.2V70H7Z" fill="#3E87F0"/>
</svg>
