<svg width="83" height="90" viewBox="0 0 83 90" fill="none" xmlns="http://www.w3.org/2000/svg">
<g clip-path="url(#clip0_16_54)">
<path d="M26.8181 53.9998C25.463 52.1972 22.8934 51.8265 21.0909 53.1816C19.2883 54.5367 18.9176 57.1063 20.2727 58.9089L25.1434 65.4032C25.757 66.2214 25.6676 67.3592 24.9517 68.0751L23.3153 69.7114C22.4588 70.568 21.0653 70.5041 20.2983 69.5708L8.81824 55.7896V36.818C8.81824 34.5552 6.99012 32.7271 4.72736 32.7271C2.46459 32.7271 0.636475 34.5552 0.636475 36.818V64.7384C0.636475 66.1319 1.10948 67.487 1.9788 68.5737L15.2869 85.7427C15.9261 86.5737 16.3608 87.5197 16.6165 88.5168C16.8466 89.3989 17.652 89.9998 18.5724 89.9998H35.409C36.534 89.9998 37.4544 89.0793 37.4544 87.9543V73.6362C37.4544 70.095 36.3038 66.656 34.1817 63.818L26.8181 53.9998ZM78.3632 32.7271C76.1004 32.7271 74.2723 34.5552 74.2723 36.818V55.7896L62.7923 69.5708C62.0253 70.4913 60.619 70.5552 59.7753 69.7114L58.1389 68.0751C57.423 67.3592 57.3335 66.2214 57.9472 65.4032L62.8179 58.9089C64.173 57.1063 63.8022 54.5367 61.9997 53.1816C60.1972 51.8265 57.6276 52.1972 56.2725 53.9998L48.9089 63.818C46.7867 66.656 45.6362 70.095 45.6362 73.6362V87.9543C45.6362 89.0793 46.5566 89.9998 47.6816 89.9998H64.5181C65.4258 89.9998 66.244 89.3989 66.4741 88.5168C66.7298 87.5197 67.1644 86.5737 67.8036 85.7427L81.1118 68.5737C81.9811 67.487 82.4541 66.1319 82.4541 64.7384V36.818C82.4541 34.5552 80.626 32.7271 78.3632 32.7271Z" fill="#3E87F0"/>
</g>
<path d="M38.5912 55.3124C37.4599 55.3124 36.486 54.9353 35.6698 54.181C34.8535 53.4268 34.3607 52.5049 34.1914 51.4154L33.6257 47.267C33.081 47.0575 32.5681 46.806 32.087 46.5127C31.606 46.2194 31.1342 45.9051 30.6716 45.5699L26.7746 47.2041C25.727 47.6651 24.6794 47.707 23.6318 47.3298C22.5843 46.9527 21.7671 46.2822 21.1805 45.3185L18.2263 40.1643C17.6397 39.2006 17.4721 38.1739 17.7235 37.0844C17.9749 35.995 18.5406 35.094 19.4206 34.3817L22.7519 31.8675C22.71 31.5741 22.689 31.2909 22.689 31.0177V29.3206C22.689 29.049 22.71 28.7666 22.7519 28.4733L19.4206 25.9591C18.5406 25.2467 17.9749 24.3458 17.7235 23.2563C17.4721 22.1668 17.6397 21.1402 18.2263 20.1764L21.1805 15.0223C21.7671 14.0585 22.5843 13.3881 23.6318 13.0109C24.6794 12.6338 25.727 12.6757 26.7746 13.1366L30.6716 14.7709C31.1325 14.4356 31.6144 14.1214 32.1172 13.828C32.62 13.5347 33.1229 13.2833 33.6257 13.0738L34.1914 8.92534C34.359 7.83585 34.8518 6.91397 35.6698 6.15971C36.4877 5.40545 37.4615 5.02832 38.5912 5.02832H44.4996C45.631 5.02832 46.6056 5.40545 47.4236 6.15971C48.2415 6.91397 48.7335 7.83585 48.8994 8.92534L49.4651 13.0738C50.0098 13.2833 50.5236 13.5347 51.0063 13.828C51.489 14.1214 51.96 14.4356 52.4193 14.7709L56.3163 13.1366C57.3638 12.6757 58.4114 12.6338 59.459 13.0109C60.5066 13.3881 61.3237 14.0585 61.9103 15.0223L64.8645 20.1764C65.4511 21.1402 65.6188 22.1668 65.3673 23.2563C65.1159 24.3458 64.5502 25.2467 63.6703 25.9591L60.339 28.4733C60.3809 28.7666 60.4018 29.0499 60.4018 29.3231V31.0177C60.4018 31.2909 60.3599 31.5741 60.2761 31.8675L63.6074 34.3817C64.4874 35.094 65.0531 35.995 65.3045 37.0844C65.5559 38.1739 65.3883 39.2006 64.8016 40.1643L61.7846 45.3185C61.198 46.2822 60.3809 46.9527 59.3333 47.3298C58.2857 47.707 57.2381 47.6651 56.1906 47.2041L52.4193 45.5699C51.9583 45.9051 51.4765 46.2194 50.9736 46.5127C50.4708 46.806 49.9679 47.0575 49.4651 47.267L48.8994 51.4154C48.7318 52.5049 48.2399 53.4268 47.4236 54.181C46.6073 54.9353 45.6326 55.3124 44.4996 55.3124H38.5912ZM41.6711 38.9701C44.1015 38.9701 46.1757 38.1111 47.8937 36.393C49.6118 34.675 50.4708 32.6008 50.4708 30.1704C50.4708 27.74 49.6118 25.6658 47.8937 23.9477C46.1757 22.2297 44.1015 21.3707 41.6711 21.3707C39.1988 21.3707 37.1137 22.2297 35.4158 23.9477C33.7179 25.6658 32.8698 27.74 32.8715 30.1704C32.8731 32.6008 33.7221 34.675 35.4183 36.393C37.1146 38.1111 39.1988 38.9701 41.6711 38.9701Z" fill="#3E87F0"/>
<defs>
<clipPath id="clip0_16_54">
<rect width="81.8176" height="65.4546" fill="white" transform="translate(0.636475 24.5454)"/>
</clipPath>
</defs>
</svg>
